<svg width="30" height="30" viewBox="0 0 30 30" fill="none" xmlns="http://www.w3.org/2000/svg">
                    <g clip-path="url(#clip0)">
                    <path fill-rule="evenodd" clip-rule="evenodd" d="M15 28.5C22.4558 28.5 28.5 22.456 28.5 15C28.5 7.54416 22.456 1.49997 15 1.49997C7.54416 1.49997 1.49997 7.54416 1.49997 15C1.49997 22.4558 7.54416 28.5 15 28.5ZM15 30C23.2842 30 30 23.2842 30 15C30 6.71567 23.2842 0 15 0C6.71567 0 0 6.71567 0 15C0 23.2842 6.71567 30 15 30Z" fill="#7900EB"/>
                    <path d="M12.6094 9H10.6406C9.99445 9 9.46875 9.5257 9.46875 10.1719V19.8281C9.46875 20.4743 9.99445 21 10.6406 21H12.6094C13.2555 21 13.7812 20.4743 13.7812 19.8281V10.1719C13.7812 9.5257 13.2555 9 12.6094 9ZM12.8438 19.8281C12.8438 19.9574 12.7386 20.0625 12.6094 20.0625H10.6406C10.5114 20.0625 10.4062 19.9574 10.4062 19.8281V10.1719C10.4062 10.0426 10.5114 9.9375 10.6406 9.9375H12.6094C12.7386 9.9375 12.8438 10.0426 12.8438 10.1719V19.8281Z" fill="#7900EB"/>
                    <path d="M19.3594 9H17.3906C16.7445 9 16.2188 9.5257 16.2188 10.1719V19.8281C16.2188 20.4743 16.7445 21 17.3906 21H19.3594C20.0055 21 20.5312 20.4743 20.5312 19.8281V10.1719C20.5312 9.5257 20.0055 9 19.3594 9ZM19.5938 19.8281C19.5938 19.9574 19.4886 20.0625 19.3594 20.0625H17.3906C17.2614 20.0625 17.1562 19.9574 17.1562 19.8281V10.1719C17.1562 10.0426 17.2614 9.9375 17.3906 9.9375H19.3594C19.4886 9.9375 19.5938 10.0426 19.5938 10.1719V19.8281Z" fill="#7900EB"/>
                    </g>
                    <defs>
                    <clipPath id="clip0">
                    <rect width="30" height="30" fill="white"/>
                    </clipPath>
                    </defs>
                </svg> 