<svg width="30" height="30" viewBox="0 0 30 30" fill="none" xmlns="http://www.w3.org/2000/svg">
                    <path fill-rule="evenodd" clip-rule="evenodd" d="M15 28.5C22.4558 28.5 28.5 22.456 28.5 15C28.5 7.54416 22.456 1.49997 15 1.49997C7.54416 1.49997 1.49997 7.54416 1.49997 15C1.49997 22.4558 7.54416 28.5 15 28.5ZM15 30C23.2842 30 30 23.2842 30 15C30 6.71567 23.2842 0 15 0C6.71567 0 0 6.71567 0 15C0 23.2842 6.71567 30 15 30Z" fill="#1C273B"/>
                    <path fill-rule="evenodd" clip-rule="evenodd" d="M18.8978 15.0009L11.9999 10.4024V19.5996L18.8978 15.0009ZM20.2914 14.1273C20.9149 14.5429 20.9149 15.459 20.2914 15.8746L12.1323 21.3142C11.4345 21.7794 10.4998 21.279 10.4998 20.4404V9.56151C10.4998 8.72288 11.4345 8.22268 12.1323 8.6879L20.2914 14.1273Z" fill="#1C273B"/>
                </svg> 