<svg width="30" height="30" viewBox="0 0 30 30" fill="none" xmlns="http://www.w3.org/2000/svg">
<path d="M16.25 22.5C16.25 23.19 15.69 23.75 15 23.75C14.31 23.75 13.75 23.19 13.75 22.5V7.5C13.75 6.81 14.31 6.25 15 6.25C15.69 6.25 16.25 6.81 16.25 7.5V22.5Z" fill="#1C273B"/>
<path d="M18.125 20V10C18.125 9.31 18.685 8.75 19.375 8.75C20.065 8.75 20.625 9.31 20.625 10V20C20.625 20.69 20.065 21.25 19.375 21.25C18.685 21.25 18.125 20.69 18.125 20Z" fill="#1C273B"/>
<path d="M23.75 18.75C23.06 18.75 22.5 18.19 22.5 17.5V12.5C22.5 11.81 23.06 11.25 23.75 11.25C24.44 11.25 25 11.81 25 12.5V17.5C25 18.19 24.44 18.75 23.75 18.75Z" fill="#1C273B"/>
<path d="M9.375 20V10C9.375 9.31 9.935 8.75 10.625 8.75C11.315 8.75 11.875 9.31 11.875 10V20C11.875 20.69 11.315 21.25 10.625 21.25C9.935 21.25 9.375 20.69 9.375 20Z" fill="#1C273B"/>
<path d="M1.25 7.5C1.94 7.5 2.5 8.06 2.5 8.75V21.25C2.5 21.94 1.94 22.5 1.25 22.5C0.559998 22.5 0 21.94 0 21.25V8.75C0 8.06 0.559998 7.5 1.25 7.5Z" fill="#1C273B"/>
<path d="M6.25 11.25C6.94 11.25 7.5 11.81 7.5 12.5V17.5C7.5 18.19 6.94 18.75 6.25 18.75C5.56 18.75 5 18.19 5 17.5V12.5C5 11.81 5.56 11.25 6.25 11.25Z" fill="#1C273B"/>
<path d="M16.25 28.75C16.25 29.44 15.69 30 15 30C14.31 30 13.75 29.44 13.75 28.75V27.5C13.75 26.81 14.31 26.25 15 26.25C15.69 26.25 16.25 26.81 16.25 27.5V28.75Z" fill="#1C273B"/>
<path d="M15 3.75C14.31 3.75 13.75 3.19 13.75 2.5V1.25C13.75 0.559998 14.31 0 15 0C15.69 0 16.25 0.559998 16.25 1.25V2.5C16.25 3.19 15.69 3.75 15 3.75Z" fill="#1C273B"/>
</svg>
